<svg width="250" height="96" viewBox="0 0 250 96" fill="none" xmlns="http://www.w3.org/2000/svg">
<rect y="15.3064" width="250" height="60.6393" rx="30.3196" fill="url(#paint0_linear_130_25)"/>
<path d="M0 45.626C0 28.8809 13.5746 15.3064 30.3196 15.3064H100.665L74.5476 75.9456H30.3196C13.5746 75.9456 0 62.3711 0 45.626Z" fill="url(#paint1_linear_130_25)"/>
<rect x="2" y="17.3064" width="246" height="56.6393" rx="28.3196" stroke="#C72B41" stroke-width="4"/>
<path d="M77.7013 48.8028L114.267 0.604401L95.3307 41.2964H104.231L67.8402 94.6475L86.304 48.7551L77.7013 48.8028Z" fill="white" stroke="#D52635" stroke-width="2"/>
<path d="M14.4653 58.3238L31.9763 31.0238H39.5813L46.1723 58.3238H38.4893L33.6143 34.6898H36.6563L22.6163 58.3238H14.4653ZM22.1093 53.0198L25.2293 47.3258H38.5673L39.4253 53.0198H22.1093ZM46.9965 58.3238L47.9715 53.4878L67.5885 34.4168L68.2515 37.1468H51.6375L52.8465 31.0238H76.3635L75.3885 35.8598L55.7715 54.9308L55.1085 52.2008H72.6975L71.4495 58.3238H46.9965Z" fill="white"/>
<path d="M111.494 43.6044L113.734 32.4044H118.47C119.92 32.4044 121.04 32.7191 121.83 33.3484C122.619 33.9777 123.014 34.8631 123.014 36.0044C123.014 36.9431 122.79 37.7644 122.342 38.4684C121.894 39.1724 121.254 39.7164 120.422 40.1004C119.59 40.4844 118.608 40.6764 117.478 40.6764H113.846L115.526 39.2684L114.662 43.6044H111.494ZM115.446 39.6364L114.342 38.1804H117.622C118.315 38.1804 118.854 38.0151 119.238 37.6844C119.622 37.3537 119.814 36.8844 119.814 36.2764C119.814 35.8071 119.659 35.4604 119.35 35.2364C119.04 35.0124 118.608 34.9004 118.054 34.9004H115.014L116.694 33.3964L115.446 39.6364ZM123.454 43.6044L125.694 32.4044H130.478C131.918 32.4044 133.028 32.7191 133.806 33.3484C134.596 33.9777 134.99 34.8524 134.99 35.9724C134.99 36.9111 134.761 37.7324 134.302 38.4364C133.854 39.1297 133.214 39.6684 132.382 40.0524C131.55 40.4364 130.569 40.6284 129.438 40.6284H125.806L127.486 39.2684L126.622 43.6044H123.454ZM130.478 43.6044L128.19 39.5244H131.47L133.79 43.6044H130.478ZM127.406 39.6364L126.302 38.1804H129.582C130.286 38.1804 130.83 38.0151 131.214 37.6844C131.598 37.3537 131.79 36.8844 131.79 36.2764C131.79 35.8071 131.636 35.4604 131.326 35.2364C131.017 35.0124 130.585 34.9004 130.03 34.9004H126.974L128.67 33.3964L127.406 39.6364ZM141.666 43.8284C140.514 43.8284 139.522 43.6204 138.69 43.2044C137.858 42.7777 137.218 42.1964 136.77 41.4604C136.322 40.7244 136.098 39.8711 136.098 38.9004C136.098 37.9191 136.269 37.0231 136.61 36.2124C136.951 35.3911 137.431 34.6817 138.05 34.0844C138.669 33.4764 139.405 33.0071 140.258 32.6764C141.122 32.3457 142.066 32.1804 143.09 32.1804C144.242 32.1804 145.234 32.3937 146.066 32.8204C146.898 33.2364 147.538 33.8124 147.986 34.5484C148.434 35.2844 148.658 36.1377 148.658 37.1084C148.658 38.0897 148.487 38.9911 148.146 39.8124C147.805 40.6231 147.325 41.3324 146.706 41.9404C146.087 42.5377 145.346 43.0017 144.482 43.3324C143.629 43.6631 142.69 43.8284 141.666 43.8284ZM141.938 41.2044C142.493 41.2044 142.983 41.1031 143.41 40.9004C143.847 40.6977 144.215 40.4151 144.514 40.0524C144.823 39.6791 145.058 39.2577 145.218 38.7884C145.378 38.3191 145.458 37.8231 145.458 37.3004C145.458 36.7991 145.351 36.3617 145.138 35.9884C144.935 35.6151 144.637 35.3271 144.242 35.1244C143.858 34.9111 143.383 34.8044 142.818 34.8044C142.274 34.8044 141.783 34.9057 141.346 35.1084C140.909 35.3111 140.535 35.5991 140.226 35.9724C139.927 36.3351 139.698 36.7511 139.538 37.2204C139.378 37.6897 139.298 38.1857 139.298 38.7084C139.298 39.1991 139.399 39.6364 139.602 40.0204C139.815 40.3937 140.114 40.6871 140.498 40.9004C140.893 41.1031 141.373 41.2044 141.938 41.2044ZM149.469 43.6044L151.709 32.4044H156.573C157.747 32.4044 158.749 32.5964 159.581 32.9804C160.424 33.3644 161.069 33.9084 161.517 34.6124C161.965 35.3057 162.189 36.1377 162.189 37.1084C162.189 38.1004 162.019 38.9964 161.677 39.7964C161.336 40.5857 160.856 41.2684 160.237 41.8444C159.619 42.4097 158.883 42.8471 158.029 43.1564C157.176 43.4551 156.232 43.6044 155.197 43.6044H149.469ZM153.149 41.0764H155.293C156.093 41.0764 156.765 40.9111 157.309 40.5804C157.853 40.2497 158.269 39.8017 158.557 39.2364C158.845 38.6604 158.989 38.0151 158.989 37.3004C158.989 36.7991 158.883 36.3724 158.669 36.0204C158.467 35.6684 158.157 35.4017 157.741 35.2204C157.336 35.0284 156.829 34.9324 156.221 34.9324H154.365L153.149 41.0764ZM168.352 43.8284C167.232 43.8284 166.293 43.6151 165.536 43.1884C164.789 42.7511 164.261 42.1431 163.952 41.3644C163.643 40.5751 163.589 39.6577 163.792 38.6124L165.04 32.4044H168.208L166.976 38.5644C166.795 39.4604 166.864 40.1271 167.184 40.5644C167.504 40.9911 168.021 41.2044 168.736 41.2044C169.397 41.2044 169.925 41.0017 170.32 40.5964C170.715 40.1911 171.008 39.5137 171.2 38.5644L172.432 32.4044H175.552L174.288 38.7564C173.957 40.4204 173.296 41.6844 172.304 42.5484C171.312 43.4017 169.995 43.8284 168.352 43.8284ZM181.799 43.8284C180.658 43.8284 179.661 43.6204 178.807 43.2044C177.965 42.7884 177.314 42.2124 176.855 41.4764C176.397 40.7297 176.167 39.8711 176.167 38.9004C176.167 37.9297 176.338 37.0337 176.679 36.2124C177.021 35.3911 177.501 34.6817 178.119 34.0844C178.738 33.4764 179.474 33.0071 180.327 32.6764C181.191 32.3457 182.146 32.1804 183.191 32.1804C184.226 32.1804 185.143 32.3617 185.943 32.7244C186.743 33.0871 187.341 33.6097 187.735 34.2924L185.447 36.1164C185.191 35.6897 184.855 35.3644 184.439 35.1404C184.034 34.9164 183.549 34.8044 182.983 34.8044C182.439 34.8044 181.943 34.9004 181.495 35.0924C181.058 35.2844 180.679 35.5564 180.359 35.9084C180.039 36.2604 179.794 36.6764 179.623 37.1564C179.453 37.6257 179.367 38.1377 179.367 38.6924C179.367 39.1937 179.474 39.6364 179.687 40.0204C179.911 40.3937 180.226 40.6871 180.631 40.9004C181.047 41.1031 181.538 41.2044 182.103 41.2044C182.605 41.2044 183.085 41.1031 183.543 40.9004C184.013 40.6977 184.445 40.3671 184.839 39.9084L186.711 41.7484C186.082 42.5057 185.357 43.0444 184.535 43.3644C183.714 43.6737 182.802 43.8284 181.799 43.8284ZM190.047 43.6044L191.791 34.9164H188.351L188.863 32.4044H198.895L198.383 34.9164H194.959L193.215 43.6044H190.047Z" fill="white"/>
<path d="M107.494 58.6044L109.734 47.4044H114.598C115.771 47.4044 116.774 47.5964 117.606 47.9804C118.448 48.3644 119.094 48.9084 119.542 49.6124C119.99 50.3057 120.214 51.1377 120.214 52.1084C120.214 53.1004 120.043 53.9964 119.702 54.7964C119.36 55.5857 118.88 56.2684 118.262 56.8444C117.643 57.4097 116.907 57.8471 116.054 58.1564C115.2 58.4551 114.256 58.6044 113.222 58.6044H107.494ZM111.174 56.0764H113.318C114.118 56.0764 114.79 55.9111 115.334 55.5804C115.878 55.2497 116.294 54.8017 116.582 54.2364C116.87 53.6604 117.014 53.0151 117.014 52.3004C117.014 51.7991 116.907 51.3724 116.694 51.0204C116.491 50.6684 116.182 50.4017 115.766 50.2204C115.36 50.0284 114.854 49.9324 114.246 49.9324H112.39L111.174 56.0764ZM125.304 51.7404H130.504L130.04 54.1084H124.84L125.304 51.7404ZM124.648 56.1564H130.52L130.008 58.6044H121.032L123.272 47.4044H132.04L131.544 49.8524H125.896L124.648 56.1564ZM136.278 58.8284C135.638 58.8284 135.025 58.7751 134.438 58.6684C133.852 58.5724 133.318 58.4337 132.838 58.2524C132.358 58.0604 131.948 57.8524 131.606 57.6284L132.854 55.2604C133.238 55.4951 133.633 55.6977 134.038 55.8684C134.454 56.0284 134.876 56.1511 135.302 56.2364C135.729 56.3217 136.156 56.3644 136.582 56.3644C136.988 56.3644 137.334 56.3271 137.622 56.2524C137.91 56.1671 138.129 56.0497 138.278 55.9004C138.428 55.7511 138.502 55.5751 138.502 55.3724C138.502 55.1484 138.401 54.9724 138.198 54.8444C138.006 54.7057 137.75 54.5884 137.43 54.4924C137.11 54.3964 136.753 54.3004 136.358 54.2044C135.974 54.0977 135.585 53.9751 135.19 53.8364C134.806 53.6871 134.454 53.5057 134.134 53.2924C133.814 53.0684 133.553 52.7857 133.35 52.4444C133.158 52.1031 133.062 51.6817 133.062 51.1804C133.062 50.3697 133.281 49.6657 133.718 49.0684C134.156 48.4711 134.774 48.0071 135.574 47.6764C136.385 47.3457 137.34 47.1804 138.438 47.1804C139.238 47.1804 139.985 47.2657 140.678 47.4364C141.372 47.5964 141.969 47.8311 142.47 48.1404L141.318 50.4924C140.881 50.2151 140.396 50.0071 139.862 49.8684C139.34 49.7191 138.801 49.6444 138.246 49.6444C137.82 49.6444 137.452 49.6924 137.142 49.7884C136.844 49.8844 136.614 50.0177 136.454 50.1884C136.305 50.3484 136.23 50.5297 136.23 50.7324C136.23 50.9457 136.326 51.1217 136.518 51.2604C136.71 51.3991 136.966 51.5164 137.286 51.6124C137.617 51.7084 137.974 51.8097 138.358 51.9164C138.753 52.0124 139.142 52.1297 139.526 52.2684C139.91 52.3964 140.268 52.5724 140.598 52.7964C140.929 53.0097 141.19 53.2817 141.382 53.6124C141.574 53.9431 141.67 54.3537 141.67 54.8444C141.67 55.6444 141.452 56.3431 141.014 56.9404C140.577 57.5377 139.953 58.0017 139.142 58.3324C138.332 58.6631 137.377 58.8284 136.278 58.8284ZM144.994 58.6044L146.738 49.9164H143.298L143.81 47.4044H153.842L153.33 49.9164H149.906L148.162 58.6044H144.994ZM153.102 58.6044L155.342 47.4044H160.126C161.566 47.4044 162.675 47.7191 163.454 48.3484C164.243 48.9777 164.638 49.8524 164.638 50.9724C164.638 51.9111 164.408 52.7324 163.95 53.4364C163.502 54.1297 162.862 54.6684 162.03 55.0524C161.198 55.4364 160.216 55.6284 159.086 55.6284H155.454L157.134 54.2684L156.27 58.6044H153.102ZM160.126 58.6044L157.838 54.5244H161.118L163.438 58.6044H160.126ZM157.054 54.6364L155.95 53.1804H159.23C159.934 53.1804 160.478 53.0151 160.862 52.6844C161.246 52.3537 161.438 51.8844 161.438 51.2764C161.438 50.8071 161.283 50.4604 160.974 50.2364C160.664 50.0124 160.232 49.9004 159.678 49.9004H156.622L158.318 48.3964L157.054 54.6364ZM170.61 58.8284C169.49 58.8284 168.551 58.6151 167.794 58.1884C167.047 57.7511 166.519 57.1431 166.21 56.3644C165.9 55.5751 165.847 54.6577 166.05 53.6124L167.298 47.4044H170.466L169.234 53.5644C169.052 54.4604 169.122 55.1271 169.442 55.5644C169.762 55.9911 170.279 56.2044 170.994 56.2044C171.655 56.2044 172.183 56.0017 172.578 55.5964C172.972 55.1911 173.266 54.5137 173.458 53.5644L174.69 47.4044H177.81L176.546 53.7564C176.215 55.4204 175.554 56.6844 174.562 57.5484C173.57 58.4017 172.252 58.8284 170.61 58.8284ZM184.057 58.8284C182.916 58.8284 181.918 58.6204 181.065 58.2044C180.222 57.7884 179.572 57.2124 179.113 56.4764C178.654 55.7297 178.425 54.8711 178.425 53.9004C178.425 52.9297 178.596 52.0337 178.937 51.2124C179.278 50.3911 179.758 49.6817 180.377 49.0844C180.996 48.4764 181.732 48.0071 182.585 47.6764C183.449 47.3457 184.404 47.1804 185.449 47.1804C186.484 47.1804 187.401 47.3617 188.201 47.7244C189.001 48.0871 189.598 48.6097 189.993 49.2924L187.705 51.1164C187.449 50.6897 187.113 50.3644 186.697 50.1404C186.292 49.9164 185.806 49.8044 185.241 49.8044C184.697 49.8044 184.201 49.9004 183.753 50.0924C183.316 50.2844 182.937 50.5564 182.617 50.9084C182.297 51.2604 182.052 51.6764 181.881 52.1564C181.71 52.6257 181.625 53.1377 181.625 53.6924C181.625 54.1937 181.732 54.6364 181.945 55.0204C182.169 55.3937 182.484 55.6871 182.889 55.9004C183.305 56.1031 183.796 56.2044 184.361 56.2044C184.862 56.2044 185.342 56.1031 185.801 55.9004C186.27 55.6977 186.702 55.3671 187.097 54.9084L188.969 56.7484C188.34 57.5057 187.614 58.0444 186.793 58.3644C185.972 58.6737 185.06 58.8284 184.057 58.8284ZM192.305 58.6044L194.049 49.9164H190.609L191.121 47.4044H201.153L200.641 49.9164H197.217L195.473 58.6044H192.305ZM200.413 58.6044L202.653 47.4044H205.821L203.581 58.6044H200.413ZM212.203 58.8284C211.051 58.8284 210.059 58.6204 209.227 58.2044C208.395 57.7777 207.755 57.1964 207.307 56.4604C206.859 55.7244 206.635 54.8711 206.635 53.9004C206.635 52.9191 206.806 52.0231 207.147 51.2124C207.488 50.3911 207.968 49.6817 208.587 49.0844C209.206 48.4764 209.942 48.0071 210.795 47.6764C211.659 47.3457 212.603 47.1804 213.627 47.1804C214.779 47.1804 215.771 47.3937 216.603 47.8204C217.435 48.2364 218.075 48.8124 218.523 49.5484C218.971 50.2844 219.195 51.1377 219.195 52.1084C219.195 53.0897 219.024 53.9911 218.683 54.8124C218.342 55.6231 217.862 56.3324 217.243 56.9404C216.624 57.5377 215.883 58.0017 215.019 58.3324C214.166 58.6631 213.227 58.8284 212.203 58.8284ZM212.475 56.2044C213.03 56.2044 213.52 56.1031 213.947 55.9004C214.384 55.6977 214.752 55.4151 215.051 55.0524C215.36 54.6791 215.595 54.2577 215.755 53.7884C215.915 53.3191 215.995 52.8231 215.995 52.3004C215.995 51.7991 215.888 51.3617 215.675 50.9884C215.472 50.6151 215.174 50.3271 214.779 50.1244C214.395 49.9111 213.92 49.8044 213.355 49.8044C212.811 49.8044 212.32 49.9057 211.883 50.1084C211.446 50.3111 211.072 50.5991 210.763 50.9724C210.464 51.3351 210.235 51.7511 210.075 52.2204C209.915 52.6897 209.835 53.1857 209.835 53.7084C209.835 54.1991 209.936 54.6364 210.139 55.0204C210.352 55.3937 210.651 55.6871 211.035 55.9004C211.43 56.1031 211.91 56.2044 212.475 56.2044ZM220.006 58.6044L222.246 47.4044H224.854L229.382 54.8924L228.294 54.8604L229.782 47.4044H232.886L230.646 58.6044H228.038L223.526 51.1164L224.598 51.1484L223.11 58.6044H220.006Z" fill="white"/>
<defs>
<linearGradient id="paint0_linear_130_25" x1="65.842" y1="19.8093" x2="65.842" y2="75.9456" gradientUnits="userSpaceOnUse">
<stop stop-color="#2862A9"/>
<stop offset="1" stop-color="#2A3869"/>
</linearGradient>
<linearGradient id="paint1_linear_130_25" x1="26.5118" y1="19.8093" x2="26.5118" y2="75.9456" gradientUnits="userSpaceOnUse">
<stop stop-color="#789E47"/>
<stop offset="1" stop-color="#364427"/>
</linearGradient>
</defs>
</svg>
